<svg xmlns="http://www.w3.org/2000/svg" width="11.667" height="16.087" viewBox="0 0 11.667 16.087">
  <g id="germination" transform="translate(-0.499 0)">
    <path id="Path_225" data-name="Path 225" d="M8.266,212.765a1.424,1.424,0,0,1-1.558-.806,3.1,3.1,0,0,0-3.386-2.009,3.562,3.562,0,0,0-2.226,5.5c2.232,4.033,8.895,5.416,10.632,2.054,1.267-2.453-.313-5.328-3.462-4.738Zm0,0" transform="translate(0 -203.309)" fill="#963814"/>
    <path id="Path_226" data-name="Path 226" d="M88.059,5.669a3.291,3.291,0,0,0,1.169-.24V7.056a5.1,5.1,0,0,1,.761,1.2.486.486,0,0,0,.182.207c0-5.386,0-4.557.007-5.433a2.76,2.76,0,0,0,1.885.126,3.36,3.36,0,0,0,1.73-2.014A.472.472,0,0,0,93.6.607,3.359,3.359,0,0,0,91,.115a2.963,2.963,0,0,0-1.759,2.762l0,.157a2.238,2.238,0,0,0-.817-.523A3.359,3.359,0,0,0,85.809,3a.471.471,0,0,0-.188.536,2.771,2.771,0,0,0,2.438,2.13Zm0,0" transform="translate(-82.425 0)" fill="#963814"/>
  </g>
</svg>
