<svg xmlns="http://www.w3.org/2000/svg" width="38.001" height="28.5" viewBox="0 0 38.001 28.5">
  <g id="boxes_1_" data-name="boxes (1)" transform="translate(0 -3)">
    <path id="Path_310" data-name="Path 310" d="M36.813,25.959H26.125V4.188a1.188,1.188,0,0,0-2.375,0V18.042H22.123L18.4,7.489a4.359,4.359,0,0,0-4.106-2.905H9.1A1.188,1.188,0,0,0,7.917,5.771v8.313H4.354A4.358,4.358,0,0,0,0,18.438v7.125a2.774,2.774,0,0,0,2.771,2.771h.477a3.957,3.957,0,0,0,7.755,0h3.327a3.957,3.957,0,0,0,7.755,0H36.812a1.188,1.188,0,0,0,0-2.375Zm-26.521-19h4a1.982,1.982,0,0,1,1.867,1.321L19.6,18.042H12.271a1.982,1.982,0,0,1-1.979-1.979v-9.1ZM7.125,29.125a1.583,1.583,0,1,1,1.583-1.583A1.585,1.585,0,0,1,7.125,29.125Zm11.084,0a1.583,1.583,0,1,1,1.583-1.583A1.585,1.585,0,0,1,18.209,29.125Z" transform="translate(0 0)" fill="#fff"/>
    <path id="Path_311" data-name="Path 311" d="M23.938,11v1.188a1.188,1.188,0,0,1-2.375,0V11H18.792a.792.792,0,0,0-.792.792v6.333a.792.792,0,0,0,.792.792h7.917a.792.792,0,0,0,.792-.792V11.792A.792.792,0,0,0,26.708,11Z" transform="translate(10.5 4.667)" fill="#fff"/>
    <path id="Path_312" data-name="Path 312" d="M23.938,5V6.188a1.188,1.188,0,0,1-2.375,0V5H18.792A.792.792,0,0,0,18,5.792v6.333a.792.792,0,0,0,.792.792h7.917a.792.792,0,0,0,.792-.792V5.792A.792.792,0,0,0,26.708,5Z" transform="translate(10.5 1.167)" fill="#fff"/>
  </g>
</svg>
