<svg id="Page-1" xmlns="http://www.w3.org/2000/svg" width="14.797" height="14.797" viewBox="0 0 14.797 14.797">
  <g id="_058---Coffee-Bean-Data" data-name="058---Coffee-Bean-Data" transform="translate(0 0)">
    <path id="Shape" d="M14.287,0H10.715a.51.51,0,0,0-.51.51v.765H9.184A1.02,1.02,0,0,0,8.164,2.3V4.135a5.533,5.533,0,0,0-1.531,0V2.3a1.02,1.02,0,0,0-1.02-1.02H4.592V.51A.51.51,0,0,0,4.082,0H.51A.51.51,0,0,0,0,.51V2.551a.51.51,0,0,0,.51.51H4.082a.51.51,0,0,0,.51-.51V1.786h1.02a.51.51,0,0,1,.51.51V4.23A3.7,3.7,0,0,0,3.087,7.051a2.364,2.364,0,0,0,1.76.857,4.863,4.863,0,0,0,2.408-.722A5.33,5.33,0,0,1,9.95,6.378a2.752,2.752,0,0,1,1.758.658A3.7,3.7,0,0,0,8.674,4.23V2.3a.51.51,0,0,1,.51-.51H10.2v.765a.51.51,0,0,0,.51.51h3.572a.51.51,0,0,0,.51-.51V.51A.51.51,0,0,0,14.287,0ZM2.3,2.3H1.276a.255.255,0,0,1,0-.51H2.3a.255.255,0,1,1,0,.51Zm1.02-1.02H1.276a.255.255,0,0,1,0-.51H3.317a.255.255,0,0,1,0,.51ZM12.5,2.3H11.48a.255.255,0,0,1,0-.51H12.5a.255.255,0,0,1,0,.51Zm1.02-1.02H11.48a.255.255,0,0,1,0-.51h2.041a.255.255,0,1,1,0,.51Z" transform="translate(0 0)" fill="#963814"/>
    <path id="Shape-2" data-name="Shape" d="M14.287,31.847H10.715a.51.51,0,0,0-.51.51v.765H9.184a.51.51,0,0,1-.51-.51V30.679A3.692,3.692,0,0,0,11.71,27.86,2.337,2.337,0,0,0,9.95,27a4.863,4.863,0,0,0-2.408.722,5.33,5.33,0,0,1-2.694.809,2.814,2.814,0,0,1-1.758-.651,3.7,3.7,0,0,0,3.033,2.8v1.934a.51.51,0,0,1-.51.51H4.592v-.765a.51.51,0,0,0-.51-.51H.51a.51.51,0,0,0-.51.51V34.4a.51.51,0,0,0,.51.51H4.082a.51.51,0,0,0,.51-.51v-.765h1.02a1.02,1.02,0,0,0,1.02-1.02V30.774a5.546,5.546,0,0,0,1.531,0v1.839a1.02,1.02,0,0,0,1.02,1.02H10.2V34.4a.51.51,0,0,0,.51.51h3.572a.51.51,0,0,0,.51-.51V32.357a.51.51,0,0,0-.51-.51ZM2.3,34.143H1.276a.255.255,0,0,1,0-.51H2.3a.255.255,0,0,1,0,.51Zm1.02-1.02H1.276a.255.255,0,0,1,0-.51H3.317a.255.255,0,0,1,0,.51Zm9.184,1.02H11.48a.255.255,0,0,1,0-.51H12.5a.255.255,0,0,1,0,.51Zm1.02-1.02H11.48a.255.255,0,0,1,0-.51h2.041a.255.255,0,0,1,0,.51Z" transform="translate(0 -20.112)" fill="#963814"/>
  </g>
</svg>
