<svg xmlns="http://www.w3.org/2000/svg" width="37" height="37" viewBox="0 0 37 37">
  <g id="Group_1160" data-name="Group 1160" transform="translate(-1501.604 -9)">
    <circle id="Ellipse_25" data-name="Ellipse 25" cx="18.5" cy="18.5" r="18.5" transform="translate(1501.604 9)" fill="#fff"/>
    <g id="user_1_" data-name="user (1)" transform="translate(1506.25 14)">
      <g id="Group_1117" data-name="Group 1117" transform="translate(0 0)">
        <path id="Path_214" data-name="Path 214" d="M23.473,4.027A13.75,13.75,0,0,0,4.027,23.473,13.75,13.75,0,0,0,23.473,4.027ZM13.75,25.889A12.111,12.111,0,0,1,4.7,21.833a9.671,9.671,0,0,1,9.048-6.257,4.834,4.834,0,1,1,4.834-4.834,4.834,4.834,0,0,1-4.834,4.834A9.671,9.671,0,0,1,22.8,21.833,12.111,12.111,0,0,1,13.75,25.889Z" transform="translate(0 0)" fill="#b64b1d"/>
      </g>
    </g>
  </g>
</svg>
