<svg xmlns="http://www.w3.org/2000/svg" width="17.67" height="17.705" viewBox="0 0 17.67 17.705">
  <path id="harvest" d="M16.051,9.538a2.588,2.588,0,0,0,2.591-2.591v-.3a.217.217,0,0,0-.221-.221h-.3a2.6,2.6,0,0,0-2.178,1.185V6.726l.138-.138a2.546,2.546,0,0,0,0-3.639l-.221-.221a.216.216,0,0,0-.3,0l-.221.221a2.52,2.52,0,0,0-.744,1.819,2.637,2.637,0,0,0,.744,1.819l.138.138v.882a2.6,2.6,0,0,0-2.178-1.185h-.3a.217.217,0,0,0-.221.221v.331a2.588,2.588,0,0,0,2.591,2.591h.083v1.158a2.6,2.6,0,0,0-2.178-1.185h-.3a.217.217,0,0,0-.221.221v.248A2.588,2.588,0,0,0,15.335,12.6h.083v1.158A2.6,2.6,0,0,0,13.24,12.57h-.3a.217.217,0,0,0-.221.221v.3a2.588,2.588,0,0,0,2.591,2.591h.083v1.185a17.081,17.081,0,0,0-5.541-1.02v-1.93h.083a2.588,2.588,0,0,0,2.591-2.591v-.3a.217.217,0,0,0-.221-.221H12a2.6,2.6,0,0,0-2.178,1.185V10.833H9.9A2.588,2.588,0,0,0,12.5,8.242v-.3a.217.217,0,0,0-.221-.221h-.3A2.6,2.6,0,0,0,9.794,8.9V7.746h.083a2.588,2.588,0,0,0,2.591-2.591v-.3a.217.217,0,0,0-.221-.221h-.3A2.6,2.6,0,0,0,9.766,5.816V4.934L9.9,4.8a2.546,2.546,0,0,0,0-3.639L9.684.937a.216.216,0,0,0-.3,0l.083.248a2.546,2.546,0,0,0,0,3.639l.138.138v.91A2.6,2.6,0,0,0,7.423,4.686h-.3a.217.217,0,0,0-.221.221v.3A2.588,2.588,0,0,0,9.491,7.8h.083V8.959A2.6,2.6,0,0,0,7.4,7.774h-.3a.217.217,0,0,0-.221.221v.3a2.588,2.588,0,0,0,2.591,2.591h.083v1.158a2.6,2.6,0,0,0-2.178-1.185h-.3a.217.217,0,0,0-.221.221v.3a2.588,2.588,0,0,0,2.591,2.591h.083v1.93a17.8,17.8,0,0,0-5.541.992V15.713H4.06a2.588,2.588,0,0,0,2.591-2.591v-.3a.217.217,0,0,0-.221-.221h-.3A2.6,2.6,0,0,0,3.95,13.783V12.625h.083a2.588,2.588,0,0,0,2.591-2.591v-.3A.217.217,0,0,0,6.4,9.51H6.1A2.6,2.6,0,0,0,3.922,10.7V9.538H4A2.588,2.588,0,0,0,6.6,6.947v-.3a.217.217,0,0,0-.221-.221h-.3A2.6,2.6,0,0,0,3.895,7.608V6.726l.138-.138a2.546,2.546,0,0,0,0-3.639V2.729a.216.216,0,0,0-.3,0l-.221.221a2.52,2.52,0,0,0-.744,1.819,2.637,2.637,0,0,0,.744,1.819l.138.138v.882A2.6,2.6,0,0,0,1.469,6.423H1.221A.217.217,0,0,0,1,6.643v.331A2.588,2.588,0,0,0,3.591,9.565h.083v1.158A2.6,2.6,0,0,0,1.5,9.538H1.221C1.083,9.51,1,9.593,1,9.731v.276A2.588,2.588,0,0,0,3.591,12.6h.083v1.158A2.6,2.6,0,0,0,1.5,12.57H1.221A.217.217,0,0,0,1,12.791v.3a2.588,2.588,0,0,0,2.591,2.591h.083v1.323A21.274,21.274,0,0,0,1.11,18.194a.2.2,0,0,0,.193.358,16.955,16.955,0,0,1,17.036,0h.11a.208.208,0,0,0,.193-.11.191.191,0,0,0-.083-.276A17.521,17.521,0,0,0,16,17.008V15.658h.083a2.588,2.588,0,0,0,2.591-2.591v-.3a.217.217,0,0,0-.221-.221h-.3a2.6,2.6,0,0,0-2.178,1.185V12.57h.083a2.588,2.588,0,0,0,2.591-2.591V9.731a.217.217,0,0,0-.221-.221h-.3A2.6,2.6,0,0,0,15.941,10.7V9.538Z" transform="translate(-1 -0.875)" fill="#963814"/>
</svg>
