<svg xmlns="http://www.w3.org/2000/svg" width="17.939" height="17.934" viewBox="0 0 17.939 17.934">
  <g id="compliant" transform="translate(0 -0.077)">
    <path id="Path_253" data-name="Path 253" d="M9.613,76.24a4.7,4.7,0,0,1,.081-.866H2.777a.526.526,0,1,1,0-1.051h7.246a4.7,4.7,0,0,1,.806-1.23.523.523,0,0,1-.171.029H2.777a.526.526,0,0,1,0-1.051h7.881a.527.527,0,0,1,.5.7,4.678,4.678,0,0,1,2.281-1.135V65.841a1.651,1.651,0,0,0-1.651-1.651H10.312a2.313,2.313,0,0,1-2.306,2.177H5.43A2.313,2.313,0,0,1,3.124,64.19H1.651A1.651,1.651,0,0,0,0,65.841V78.226a1.651,1.651,0,0,0,1.651,1.651h9.7A4.681,4.681,0,0,1,9.613,76.24ZM2.777,67.568h7.881a.526.526,0,0,1,0,1.051H2.777a.526.526,0,0,1,0-1.051Zm0,2.252h7.881a.526.526,0,1,1,0,1.051H2.777a.526.526,0,0,1,0-1.051Zm2.815,7.806H2.777a.526.526,0,0,1,0-1.051H5.592a.526.526,0,1,1,0,1.051Z" transform="translate(0 -61.867)" fill="#963814"/>
    <path id="Path_254" data-name="Path 254" d="M120.507,3.449h2.576A1.261,1.261,0,1,0,122.989.93a1.262,1.262,0,0,0-2.388,0A1.261,1.261,0,1,0,120.507,3.449Z" transform="translate(-115.077 0)" fill="#963814"/>
    <path id="Path_255" data-name="Path 255" d="M308.007,304.294a3.637,3.637,0,1,0,3.637,3.637A3.642,3.642,0,0,0,308.007,304.294Zm1.463,3.281-1.455,1.455a.526.526,0,0,1-.743,0l-.728-.727a.526.526,0,0,1,.743-.743l.356.356,1.083-1.083A.526.526,0,0,1,309.47,307.575Z" transform="translate(-293.705 -293.558)" fill="#963814"/>
  </g>
</svg>
