<svg id="layer1" xmlns="http://www.w3.org/2000/svg" width="36.661" height="36.667" viewBox="0 0 36.661 36.667">
  <path id="path823" d="M18.487.271a1.206,1.206,0,0,0-.37.091L1.013,7.693A1.225,1.225,0,0,0,.264,8.822v4.888a1.222,1.222,0,0,0,1.227,1.217H35.708a1.221,1.221,0,0,0,1.217-1.217V8.822a1.224,1.224,0,0,0-.74-1.129L19.081.361a1.218,1.218,0,0,0-.594-.091ZM18.6,7.6A1.222,1.222,0,1,1,17.377,8.82,1.222,1.222,0,0,1,18.6,7.6ZM3.935,17.374V27.15H8.823V17.374Zm12.22,0V27.15h4.888V17.374Zm12.22,0V27.15h4.888V17.374ZM3.811,29.6a1.215,1.215,0,0,0-.74.351L.624,32.394a1.223,1.223,0,0,0-.36.866V35.7a1.222,1.222,0,0,0,1.227,1.227H35.708A1.222,1.222,0,0,0,36.925,35.7V33.241a1.224,1.224,0,0,0-.36-.876L34.12,29.948a1.221,1.221,0,0,0-.857-.351H3.937a1.23,1.23,0,0,0-.126,0Z" transform="translate(-0.264 -0.265)" fill="#0abde3"/>
</svg>
