<svg xmlns="http://www.w3.org/2000/svg" width="15.071" height="15.039" viewBox="0 0 15.071 15.039">
  <g id="seeding" transform="translate(0 -0.472)">
    <g id="Group_1122" data-name="Group 1122" transform="translate(4.304 4.784)">
      <g id="Group_1121" data-name="Group 1121">
        <path id="Path_235" data-name="Path 235" d="M131.136,129.929a.179.179,0,0,0,.234-.225c-.323-.994-1.49-1.365-2.576-.483a4.628,4.628,0,0,1-.791.565c.376.376.807,1.64,1.745,1.779,1.034.187,1.949-.83,1.2-1.3a3.2,3.2,0,0,0-1.694-.484A3.206,3.206,0,0,1,131.136,129.929Z" transform="translate(-128.003 -128.724)" fill="#963814"/>
      </g>
    </g>
    <g id="Group_1124" data-name="Group 1124" transform="translate(7.241 0.472)">
      <g id="Group_1123" data-name="Group 1123" transform="translate(0 0)">
        <path id="Path_236" data-name="Path 236" d="M220.258,5.281c-1.874-1.522-3.069.878-2.326.64a3.2,3.2,0,0,1,1.683-.075,3.224,3.224,0,0,0-2.487,1.181,20.61,20.61,0,0,1,.211-2.4,2,2,0,0,0,1.535-1.129,4.507,4.507,0,0,0,.245-3.022c-.494.481-2.651-.083-3.506,1.383a1.886,1.886,0,0,0,.129,2.011.242.242,0,0,0,.435-.127,2.268,2.268,0,0,1,1.41-2.094,4.348,4.348,0,0,0-.8,1.7,17.262,17.262,0,0,0-.513,4.536.535.535,0,0,0,.54.55.543.543,0,0,0,.491-.344,2.435,2.435,0,0,1,.677-.918,1.434,1.434,0,0,0,1.322.454c.935-.139,1.371-1.405,1.745-1.779A4.61,4.61,0,0,1,220.258,5.281Z" transform="translate(-215.38 -0.472)" fill="#963814"/>
      </g>
    </g>
    <g id="Group_1126" data-name="Group 1126" transform="translate(0 8.519)">
      <g id="Group_1125" data-name="Group 1125">
        <path id="Path_237" data-name="Path 237" d="M14.874,240.287a1.418,1.418,0,0,0-1.516.055l-3.675,2.69H7.531l-.538-.538H8.969a1.176,1.176,0,0,0,1.26-1.076,1.148,1.148,0,0,0-1.26-1.076H8.229a3.674,3.674,0,0,1-1.646-.194,3.2,3.2,0,0,0-1.456-.344,3.107,3.107,0,0,0-2.23.913L0,243.569,3.228,246.8,4.3,245.183H9.388a2.215,2.215,0,0,0,1.471-.559l4.053-3.6A.471.471,0,0,0,14.874,240.287Z" transform="translate(0 -239.804)" fill="#963814"/>
      </g>
    </g>
  </g>
</svg>
