<svg xmlns="http://www.w3.org/2000/svg" width="20.436" height="15.982" viewBox="0 0 20.436 15.982">
  <g id="tag" transform="translate(0 -53.064)">
    <path id="Path_266" data-name="Path 266" d="M5.512,68.587a1.57,1.57,0,0,0,2.22,0l7.6-7.6a2.225,2.225,0,0,0,.5-.755,7.99,7.99,0,0,0,2.161.323c1.62-.008,2.157-.718,2.333-1.141s.3-1.3-.835-2.459l-.038-.038a9.085,9.085,0,0,0-2.891-1.838c-.214-.088-.428-.168-.638-.243v-.013a1.718,1.718,0,0,0-1.7-1.7l-4.553-.063a2.214,2.214,0,0,0-1.607.655l-7.6,7.6a1.57,1.57,0,0,0,0,2.22Zm5.858-12.8a1.3,1.3,0,0,1,2.2,1.108,9.058,9.058,0,0,0,1.733.944c.227.092.445.176.655.248l-.025-1.83.109.046a7.909,7.909,0,0,1,2.463,1.553l.025.025c.546.558.6.915.558,1.024-.143.34-1.674.642-4-.327a8.975,8.975,0,0,1-1.834-1.02c-.017.021-.038.042-.055.063a1.3,1.3,0,1,1-1.834-1.834Z" transform="translate(0 0)" fill="#963814"/>
  </g>
</svg>
