<svg xmlns="http://www.w3.org/2000/svg" width="31.666" height="31.666" viewBox="0 0 31.666 31.666">
  <g id="Group_1148" data-name="Group 1148" transform="translate(-50 -206)">
    <path id="Path_222" data-name="Path 222" d="M15.833,0A15.833,15.833,0,1,1,0,15.833,15.833,15.833,0,0,1,15.833,0Z" transform="translate(50 206)" fill="#963814" opacity="0.1"/>
    <g id="setting" transform="translate(55.592 209)">
      <path id="Path_220" data-name="Path 220" d="M15.425,10.069c.009-.106.018-.212.018-.327s-.009-.221-.018-.327l.733-.539a1.089,1.089,0,0,0,.3-1.413L15.8,6.3a1.056,1.056,0,0,0-1.378-.451l-.813.38a4.2,4.2,0,0,0-.5-.3l-.088-.945A1.075,1.075,0,0,0,11.954,4H10.646a1.075,1.075,0,0,0-1.069.981l-.088.945a4.2,4.2,0,0,0-.5.3l-.813-.38A1.065,1.065,0,0,0,6.795,6.3L6.141,7.463a1.089,1.089,0,0,0,.3,1.413l.733.539c-.009.106-.018.212-.018.327s.009.221.018.327l-.733.539a1.089,1.089,0,0,0-.3,1.413l.654,1.166a1.065,1.065,0,0,0,1.378.451l.813-.38a4.2,4.2,0,0,0,.5.3l.088.945a1.075,1.075,0,0,0,1.069.981h1.307a1.075,1.075,0,0,0,1.069-.981l.088-.945a4.2,4.2,0,0,0,.5-.3l.813.38a1.056,1.056,0,0,0,1.378-.451l.654-1.166a1.089,1.089,0,0,0-.3-1.413Zm-1.917-.327A2.208,2.208,0,1,1,11.3,7.533,2.209,2.209,0,0,1,13.508,9.742Z" transform="translate(-0.7)" fill="#963814"/>
      <path id="Path_221" data-name="Path 221" d="M18.55,18H2.65a2.65,2.65,0,0,0,0,5.3h15.9a2.65,2.65,0,0,0,0-5.3ZM3.533,21.533a.883.883,0,1,1,.883-.883A.885.885,0,0,1,3.533,21.533Zm4.417,0a.883.883,0,1,1,.883-.883A.885.885,0,0,1,7.95,21.533Zm5.3,0a.883.883,0,1,1,.883-.883A.885.885,0,0,1,13.25,21.533Zm4.417,0a.883.883,0,1,1,.883-.883A.885.885,0,0,1,17.667,21.533Z" transform="translate(0 -1.633)" fill="#963814"/>
    </g>
  </g>
</svg>
