<svg id="bell" xmlns="http://www.w3.org/2000/svg" width="30.556" height="36.667" viewBox="0 0 30.556 36.667">
  <path id="Path_259" data-name="Path 259" d="M31.607,25.839a10.233,10.233,0,0,1-3.635-7.83V13.75A10.7,10.7,0,0,0,18.806,3.178V1.528a1.528,1.528,0,1,0-3.056,0v1.65A10.7,10.7,0,0,0,6.583,13.75v4.259a10.244,10.244,0,0,1-3.648,7.842,2.673,2.673,0,0,0,1.739,4.7H29.882a2.674,2.674,0,0,0,1.725-4.716Z" transform="translate(-2 0)" fill="#ff9f43"/>
  <path id="Path_260" data-name="Path 260" d="M13.939,25.583A5.738,5.738,0,0,0,19.552,21H8.326A5.738,5.738,0,0,0,13.939,25.583Z" transform="translate(1.339 11.083)" fill="#ff9f43"/>
</svg>
