<svg xmlns="http://www.w3.org/2000/svg" width="16.42" height="16.42" viewBox="0 0 16.42 16.42">
  <g id="conference" transform="translate(0 -0.001)">
    <circle id="Ellipse_26" data-name="Ellipse 26" cx="0.793" cy="0.793" r="0.793" transform="translate(3.454 3.456)" fill="#963814"/>
    <circle id="Ellipse_27" data-name="Ellipse 27" cx="0.793" cy="0.793" r="0.793" transform="translate(11.38 3.456)" fill="#963814"/>
    <circle id="Ellipse_28" data-name="Ellipse 28" cx="0.793" cy="0.793" r="0.793" transform="translate(11.38 8.211)" fill="#963814"/>
    <circle id="Ellipse_29" data-name="Ellipse 29" cx="0.793" cy="0.793" r="0.793" transform="translate(3.454 8.211)" fill="#963814"/>
    <path id="Path_253" data-name="Path 253" d="M24.257,14.513h.513a.257.257,0,1,0,0-.513h-.513a.257.257,0,0,0,0,.513Z" transform="translate(-17.842 -10.407)" fill="#963814"/>
    <path id="Path_254" data-name="Path 254" d="M24.257,32.513h.513a.257.257,0,1,0,0-.513h-.513a.257.257,0,0,0,0,.513Z" transform="translate(-17.842 -23.789)" fill="#963814"/>
    <path id="Path_255" data-name="Path 255" d="M56.257,14.513h.513a.257.257,0,1,0,0-.513h-.513a.257.257,0,1,0,0,.513Z" transform="translate(-41.632 -10.407)" fill="#963814"/>
    <path id="Path_256" data-name="Path 256" d="M56.77,32h-.513a.257.257,0,1,0,0,.513h.513a.257.257,0,1,0,0-.513Z" transform="translate(-41.632 -23.789)" fill="#963814"/>
    <path id="Path_257" data-name="Path 257" d="M21.027,56v.664l-.952.949a.257.257,0,0,0-.054.28.253.253,0,0,0,.236.159H25.9a.253.253,0,0,0,.236-.159.257.257,0,0,0-.054-.28l-.952-.949V56Z" transform="translate(-14.869 -41.632)" fill="#963814"/>
    <path id="Path_258" data-name="Path 258" d="M15.65,2.566H8.467V2.541a1.283,1.283,0,1,0-.513,0v.026H.77a.772.772,0,0,0-.77.77v9.749a.772.772,0,0,0,.77.77H15.65a.772.772,0,0,0,.77-.77V3.336a.772.772,0,0,0-.77-.77Zm.257.77V7.185H13.854V6.671a1.283,1.283,0,0,0-1.283-1.283h-.513a1.283,1.283,0,0,0-1.283,1.283v.513H8.467V3.08H15.65A.257.257,0,0,1,15.907,3.336ZM8.21,1.027a.257.257,0,1,1-.257.257A.257.257,0,0,1,8.21,1.027ZM.77,3.08H7.953V7.185H5.644V6.671A1.283,1.283,0,0,0,4.362,5.389H3.848A1.283,1.283,0,0,0,2.566,6.671v.513H.513V3.336A.257.257,0,0,1,.77,3.08ZM.513,11.8V7.7h7.44V11.8H5.644V11.29a1.283,1.283,0,0,0-1.283-1.283H3.848A1.283,1.283,0,0,0,2.566,11.29V11.8Zm7.7,1.283a.257.257,0,1,1,.257-.257A.257.257,0,0,1,8.21,13.085ZM13.854,11.8V11.29a1.283,1.283,0,0,0-1.283-1.283h-.513a1.283,1.283,0,0,0-1.283,1.283V11.8H8.467V7.7h7.44V11.8Z" fill="#963814"/>
  </g>
</svg>
