<?xml version="1.0" encoding="UTF-8"?>
<svg xmlns="http://www.w3.org/2000/svg" xmlns:xlink="http://www.w3.org/1999/xlink" width="30px" height="30px" viewBox="0 0 30 30" version="1.1">
<g id="surface1">
<path style=" stroke:none;fill-rule:nonzero;fill:rgb(91.372549%,49.411765%,8.235294%);fill-opacity:1;" d="M 3.847656 0 L 26.152344 0 C 28.277344 0 30 1.722656 30 3.847656 L 30 26.152344 C 30 28.277344 28.277344 30 26.152344 30 L 3.847656 30 C 1.722656 30 0 28.277344 0 26.152344 L 0 3.847656 C 0 1.722656 1.722656 0 3.847656 0 Z M 3.847656 0 "/>
<path style=" stroke:none;fill-rule:nonzero;fill:rgb(100%,100%,100%);fill-opacity:1;" d="M 9.804688 12.203125 L 10.695312 20.667969 C 10.734375 21.035156 11.042969 21.3125 11.410156 21.3125 L 19.707031 21.3125 C 20.074219 21.3125 20.382812 21.035156 20.421875 20.667969 L 21.3125 12.203125 Z M 17.238281 18.71875 L 15.558594 17.039062 L 13.878906 18.71875 L 13.117188 17.957031 L 14.796875 16.277344 L 13.117188 14.597656 L 13.878906 13.835938 L 15.558594 15.515625 L 17.238281 13.835938 L 18 14.601562 L 16.320312 16.277344 L 18 17.957031 Z M 17.238281 18.71875 "/>
<path style=" stroke:none;fill-rule:nonzero;fill:rgb(100%,100%,100%);fill-opacity:1;" d="M 9.203125 8.84375 L 21.914062 8.84375 C 22.113281 8.84375 22.273438 9.003906 22.273438 9.203125 L 22.273438 10.882812 C 22.273438 11.082031 22.113281 11.242188 21.914062 11.242188 L 9.203125 11.242188 C 9.003906 11.242188 8.84375 11.082031 8.84375 10.882812 L 8.84375 9.203125 C 8.84375 9.003906 9.003906 8.84375 9.203125 8.84375 Z M 9.203125 8.84375 "/>
</g>
</svg>
