<svg xmlns="http://www.w3.org/2000/svg" width="15.852" height="17.614" viewBox="0 0 15.852 17.614">
  <g id="seed-bag" transform="translate(-0.33 0.001)">
    <path id="Path_260" data-name="Path 260" d="M140.816,225.38a1.323,1.323,0,0,0-1.321-1.321h-.44v.44a1.323,1.323,0,0,0,1.321,1.321h.44Zm0,0" transform="translate(-132.998 -214.81)" fill="#963814"/>
    <path id="Path_261" data-name="Path 261" d="M140.816,118.716A1.322,1.322,0,0,0,139.5,117.4h-.44v.44a1.322,1.322,0,0,0,1.321,1.321h.44Zm0,0" transform="translate(-132.998 -112.549)" fill="#963814"/>
    <path id="Path_262" data-name="Path 262" d="M203.5,225.82a1.323,1.323,0,0,0,1.321-1.321v-.44h-.44a1.323,1.323,0,0,0-1.321,1.321v.44Zm0,0" transform="translate(-194.356 -214.81)" fill="#963814"/>
    <path id="Path_263" data-name="Path 263" d="M203.055,118.716v.44h.44a1.322,1.322,0,0,0,1.321-1.321v-.44h-.44A1.322,1.322,0,0,0,203.055,118.716Zm0,0" transform="translate(-194.356 -112.549)" fill="#963814"/>
    <path id="Path_264" data-name="Path 264" d="M15.108,14.671a27.542,27.542,0,0,0,0-11.725l.689-.689A1.321,1.321,0,0,0,13.93.389l-.494.494H3.081L2.587.389A1.321,1.321,0,1,0,.719,2.257l.689.689a27.542,27.542,0,0,0,0,11.725l-.69.69a1.321,1.321,0,0,0,1.868,1.868l.494-.494H13.436l.494.494A1.321,1.321,0,0,0,15.8,15.361ZM11.341,5.286a2.2,2.2,0,0,1-2.2,2.2H8.7V8.82a2.181,2.181,0,0,1,1.321-.451H10.9a.44.44,0,0,1,.44.44v.881a2.2,2.2,0,0,1-2.2,2.2H8.7v1.321a.44.44,0,1,1-.881,0V11.891h-.44a2.2,2.2,0,0,1-2.2-2.2V8.809a.44.44,0,0,1,.44-.44H6.5a2.18,2.18,0,0,1,1.321.451V7.488h-.44a2.2,2.2,0,0,1-2.2-2.2V4.405a.44.44,0,0,1,.44-.44H6.5a2.193,2.193,0,0,1,1.761.894,2.193,2.193,0,0,1,1.761-.894H10.9a.44.44,0,0,1,.44.44Zm0,0" transform="translate(0)" fill="#963814"/>
  </g>
</svg>
