<svg xmlns="http://www.w3.org/2000/svg" width="15.927" height="18" viewBox="0 0 15.927 18">
  <path id="farmer_2_" data-name="farmer (2)" d="M73.488,48.014a.323.323,0,1,1-.323.323.323.323,0,0,1,.323-.323Zm-5.381,0a.323.323,0,1,1-.323.323.323.323,0,0,1,.323-.323Zm-.91-3.437.323,3.086H67.4a.43.43,0,0,0-.43.37l-.381,2.751H64.715V45.868A11.2,11.2,0,0,1,67.2,44.577Zm7.184-.009a8.612,8.612,0,0,1,2.606,1.395,1.8,1.8,0,0,1,.689,1.378v3.444H74.988l-.377-2.751a.43.43,0,0,0-.43-.37h-.118l.319-3.1ZM70.789,43.9a9.684,9.684,0,0,1,2.542.347l-.351,3.42H68.6l-.351-3.414a10.33,10.33,0,0,1,2.542-.353Zm-8.717-3.491a.323.323,0,0,1,.323.323v2.738a.592.592,0,0,0,.536.592v-3.33a.323.323,0,1,1,.646,0v3.336h.575V40.729a.323.323,0,1,1,.646,0v3.33h.019a.592.592,0,0,0,.592-.592V40.729a.323.323,0,1,1,.646,0v2.74a1.24,1.24,0,0,1-1.238,1.242h-.532V52h-.867V44.7h-.43a1.24,1.24,0,0,1-1.238-1.238V40.729a.323.323,0,0,1,.323-.323Zm8.65-1.337a28.168,28.168,0,0,1,3.493.189,2.209,2.209,0,0,1,.017.334,3.444,3.444,0,1,1-6.887,0,2.407,2.407,0,0,1,.017-.353,29.666,29.666,0,0,1,3.36-.17ZM69.166,34c.915,0,1.1.237,1.647.237S71.544,34,72.459,34c.867,0,1.278,1.89,1.412,2.953,2.23.669,2.985,1.233,2.979,1.689,0,.954-.471-.215-6.134-.215-5.745,0-6.134,1.169-6.134.215,0-.458.771-1.029,3.013-1.7.183-1.065.71-2.944,1.571-2.944Z" transform="translate(-61.749 -33.996)" fill="#963814" fill-rule="evenodd"/>
</svg>
