<svg xmlns="http://www.w3.org/2000/svg" width="41" height="41" viewBox="0 0 41 41">
  <g id="Group_1074" data-name="Group 1074" transform="translate(-33 -176)">
    <path id="Path_219" data-name="Path 219" d="M20.5,0A20.5,20.5,0,1,1,0,20.5,20.5,20.5,0,0,1,20.5,0Z" transform="translate(33 176)" fill="#963814"/>
    <g id="Group_94" data-name="Group 94" transform="translate(-8.141 1.807)">
      <g id="Icon" transform="translate(53.491 183.387)">
        <path id="Path_190" data-name="Path 190" d="M12.22,14.186a4.47,4.47,0,0,0,4.47-4.47V7.087a.788.788,0,0,0-.416-.7,8.191,8.191,0,0,0-8.1,0,.789.789,0,0,0-.424.7V9.716A4.47,4.47,0,0,0,12.22,14.186Z" transform="translate(-4.069 -1.039)" fill="#fff" fill-rule="evenodd"/>
        <path id="Path_191" data-name="Path 191" d="M17.4,13.325v9.913h2.366a.789.789,0,0,0,.789-.789V17.19A3.945,3.945,0,0,0,17.4,13.325ZM8.983,16a3.945,3.945,0,0,0,6.836,0v7.234H8.983ZM7.405,13.325A3.945,3.945,0,0,0,4.25,17.19v5.259a.789.789,0,0,0,.789.789H7.405Z" transform="translate(-4.25 -0.625)" fill="#fff" fill-rule="evenodd"/>
        <path id="Path_192" data-name="Path 192" d="M8.084,4a6.144,6.144,0,0,0-1.835.946,2.36,2.36,0,0,0-1,1.823,2.193,2.193,0,0,0,.693,1.546,4.17,4.17,0,0,0,.885.667V7.3a1.839,1.839,0,0,1,.989-1.631,9.189,9.189,0,0,1,9.084.008A1.843,1.843,0,0,1,17.871,7.3V8.985a4.17,4.17,0,0,0,.885-.667,2.193,2.193,0,0,0,.693-1.546,2.36,2.36,0,0,0-1-1.823A6.144,6.144,0,0,0,16.614,4l-.638-1.6A1.841,1.841,0,0,0,14.267,1.25H10.432A1.841,1.841,0,0,0,8.723,2.407Z" transform="translate(-4.198 -1.25)" fill="#fff" fill-rule="evenodd"/>
        <path id="Path_193" data-name="Path 193" d="M9.25,13.973V14a2.892,2.892,0,1,0,5.785,0v-.028a5.527,5.527,0,0,1-5.785,0Z" transform="translate(-3.991 -0.591)" fill="#fff" fill-rule="evenodd"/>
      </g>
    </g>
  </g>
</svg>
