<svg xmlns="http://www.w3.org/2000/svg" width="31.666" height="31.666" viewBox="0 0 31.666 31.666">
  <g id="Group_1150" data-name="Group 1150" transform="translate(-50 -320.167)">
    <path id="Path_224" data-name="Path 224" d="M15.833,0A15.833,15.833,0,1,1,0,15.833,15.833,15.833,0,0,1,15.833,0Z" transform="translate(50 320.167)" fill="#963814" opacity="0.1"/>
    <g id="seeding" transform="translate(57.624 327.336)">
      <g id="Group_1143" data-name="Group 1143" transform="translate(4.688 5.169)">
        <g id="Group_1142" data-name="Group 1142">
          <path id="Path_225" data-name="Path 225" d="M131.416,130.037a.2.2,0,0,0,.255-.245c-.351-1.083-1.624-1.487-2.806-.526a5.041,5.041,0,0,1-.862.616c.41.41.879,1.786,1.9,1.938,1.126.2,2.123-.9,1.308-1.411a3.483,3.483,0,0,0-1.845-.527A3.493,3.493,0,0,1,131.416,130.037Z" transform="translate(-128.003 -128.724)" fill="#963814"/>
        </g>
      </g>
      <g id="Group_1145" data-name="Group 1145" transform="translate(7.888 0.472)">
        <g id="Group_1144" data-name="Group 1144">
          <path id="Path_226" data-name="Path 226" d="M220.694,5.711c-2.042-1.658-3.344.957-2.534.7a3.48,3.48,0,0,1,1.834-.082,3.512,3.512,0,0,0-2.709,1.286,22.45,22.45,0,0,1,.23-2.619,2.178,2.178,0,0,0,1.672-1.23,4.91,4.91,0,0,0,.266-3.292c-.538.524-2.888-.09-3.819,1.506a2.055,2.055,0,0,0,.141,2.191.263.263,0,0,0,.474-.138,2.471,2.471,0,0,1,1.536-2.281,4.736,4.736,0,0,0-.872,1.855,18.8,18.8,0,0,0-.559,4.942.583.583,0,0,0,.588.6.592.592,0,0,0,.535-.375,2.653,2.653,0,0,1,.737-1,1.563,1.563,0,0,0,1.44.5c1.018-.152,1.493-1.531,1.9-1.938A5.02,5.02,0,0,1,220.694,5.711Z" transform="translate(-215.38 -0.472)" fill="#963814"/>
        </g>
      </g>
      <g id="Group_1147" data-name="Group 1147" transform="translate(0 9.238)">
        <g id="Group_1146" data-name="Group 1146">
          <path id="Path_227" data-name="Path 227" d="M16.2,240.33a1.545,1.545,0,0,0-1.652.06l-4,2.93H8.2l-.586-.586H9.771a1.282,1.282,0,0,0,1.373-1.172,1.25,1.25,0,0,0-1.373-1.172H8.964a4,4,0,0,1-1.793-.211,3.491,3.491,0,0,0-1.586-.375,3.385,3.385,0,0,0-2.429.995L0,243.906l3.516,3.516,1.172-1.758h5.538a2.413,2.413,0,0,0,1.6-.609l4.415-3.922A.513.513,0,0,0,16.2,240.33Z" transform="translate(0 -239.804)" fill="#963814"/>
        </g>
      </g>
    </g>
  </g>
</svg>
