<svg xmlns="http://www.w3.org/2000/svg" width="12.232" height="15.29" viewBox="0 0 12.232 15.29">
  <path id="draft" d="M15.6,5.924,12.39,2.631A2.19,2.19,0,0,0,10.822,2H6.2A2.125,2.125,0,0,0,4,4.121V15.095A2.191,2.191,0,0,0,6.2,17.29h7.841a2.191,2.191,0,0,0,2.2-2.195V7.413A2.141,2.141,0,0,0,15.6,5.924ZM7.764,8.2h2.352a.618.618,0,0,1,.627.627.577.577,0,0,1-.627.627H7.764a.627.627,0,1,1,0-1.254Zm4.7,4.39h-4.7a.618.618,0,0,1-.627-.627.577.577,0,0,1,.627-.627h4.7a.627.627,0,1,1,0,1.254Z" transform="translate(-4 -2)" fill="#963814"/>
</svg>
