<?xml version="1.0" encoding="UTF-8"?>
<svg xmlns="http://www.w3.org/2000/svg" xmlns:xlink="http://www.w3.org/1999/xlink" width="30px" height="30px" viewBox="0 0 30 30" version="1.1">
<g id="surface1">
<path style=" stroke:none;fill-rule:nonzero;fill:rgb(91.372549%,49.411765%,8.235294%);fill-opacity:1;" d="M 3.847656 0 L 26.152344 0 C 28.277344 0 30 1.722656 30 3.847656 L 30 26.152344 C 30 28.277344 28.277344 30 26.152344 30 L 3.847656 30 C 1.722656 30 0 28.277344 0 26.152344 L 0 3.847656 C 0 1.722656 1.722656 0 3.847656 0 Z M 3.847656 0 "/>
<path style=" stroke:none;fill-rule:nonzero;fill:rgb(100%,100%,100%);fill-opacity:1;" d="M 20.480469 21.511719 L 10.460938 21.511719 C 10.015625 21.519531 9.589844 21.339844 9.28125 21.023438 C 8.960938 20.710938 8.785156 20.285156 8.792969 19.839844 L 8.792969 9.820312 C 8.785156 9.378906 8.960938 8.953125 9.28125 8.644531 C 9.59375 8.332031 10.019531 8.15625 10.460938 8.164062 L 17.976562 8.164062 L 16.304688 9.820312 L 11.296875 9.820312 C 11.070312 9.816406 10.855469 9.90625 10.703125 10.066406 C 10.546875 10.222656 10.457031 10.433594 10.460938 10.65625 L 10.460938 19.003906 C 10.457031 19.230469 10.546875 19.445312 10.707031 19.597656 C 10.863281 19.753906 11.074219 19.84375 11.296875 19.839844 L 19.644531 19.839844 C 19.867188 19.84375 20.082031 19.753906 20.238281 19.597656 C 20.398438 19.441406 20.484375 19.226562 20.480469 19.003906 L 20.480469 13.996094 L 22.152344 12.324219 L 22.152344 19.839844 C 22.152344 20.761719 21.402344 21.511719 20.480469 21.511719 Z M 12.96875 15.457031 L 14.847656 17.335938 L 12.132812 18.171875 Z M 15.679688 16.710938 L 13.59375 14.632812 L 19.839844 8.371094 C 20.136719 8.09375 20.601562 8.09375 20.898438 8.371094 L 21.929688 9.417969 C 22.066406 9.550781 22.144531 9.738281 22.144531 9.929688 C 22.152344 10.128906 22.074219 10.324219 21.929688 10.460938 Z M 15.679688 16.710938 "/>
</g>
</svg>
