<svg xmlns="http://www.w3.org/2000/svg" width="36.154" height="36.225" viewBox="0 0 36.154 36.225">
  <path id="harvest" d="M31.8,18.6a5.3,5.3,0,0,0,5.3-5.3v-.62a.445.445,0,0,0-.451-.451h-.62a5.311,5.311,0,0,0-4.456,2.425v-1.8l.282-.282a5.209,5.209,0,0,0,0-7.445L31.4,4.668a.443.443,0,0,0-.62,0l-.451.451a5.155,5.155,0,0,0-1.523,3.723,5.4,5.4,0,0,0,1.523,3.723l.282.282v1.8a5.311,5.311,0,0,0-4.456-2.425h-.62a.445.445,0,0,0-.451.451v.677a5.3,5.3,0,0,0,5.3,5.3h.169v2.369A5.311,5.311,0,0,0,26.1,18.6h-.62a.445.445,0,0,0-.451.451v.508a5.3,5.3,0,0,0,5.3,5.3H30.5v2.369A5.311,5.311,0,0,0,26.043,24.8h-.62a.445.445,0,0,0-.451.451v.62a5.3,5.3,0,0,0,5.3,5.3h.169V33.6a34.949,34.949,0,0,0-11.337-2.087V27.568h.169a5.3,5.3,0,0,0,5.3-5.3v-.62a.445.445,0,0,0-.451-.451H23.5a5.311,5.311,0,0,0-4.456,2.425V21.251h.169a5.3,5.3,0,0,0,5.3-5.3v-.62a.445.445,0,0,0-.451-.451h-.62A5.311,5.311,0,0,0,18.993,17.3V14.934h.169a5.3,5.3,0,0,0,5.3-5.3v-.62a.445.445,0,0,0-.451-.451h-.62a5.311,5.311,0,0,0-4.456,2.425V9.18l.282-.282a5.209,5.209,0,0,0,0-7.445L18.767,1a.443.443,0,0,0-.62,0l.169.508a5.209,5.209,0,0,0,0,7.445l.282.282V11.1a5.311,5.311,0,0,0-4.456-2.425h-.62a.445.445,0,0,0-.451.451v.62a5.3,5.3,0,0,0,5.3,5.3h.169v2.369a5.311,5.311,0,0,0-4.456-2.425h-.62a.445.445,0,0,0-.451.451v.62a5.3,5.3,0,0,0,5.3,5.3h.169v2.369a5.311,5.311,0,0,0-4.456-2.425h-.62a.445.445,0,0,0-.451.451v.62a5.3,5.3,0,0,0,5.3,5.3h.169v3.948A36.423,36.423,0,0,0,7.092,33.659V31.234h.169a5.3,5.3,0,0,0,5.3-5.3v-.62a.445.445,0,0,0-.451-.451h-.62a5.311,5.311,0,0,0-4.456,2.425V24.917H7.2a5.3,5.3,0,0,0,5.3-5.3v-.62a.445.445,0,0,0-.451-.451h-.62a5.311,5.311,0,0,0-4.456,2.425V18.6h.169a5.3,5.3,0,0,0,5.3-5.3v-.62A.445.445,0,0,0,12,12.226h-.62a5.311,5.311,0,0,0-4.456,2.425v-1.8l.282-.282a5.209,5.209,0,0,0,0-7.445V4.668a.443.443,0,0,0-.62,0l-.451.451A5.155,5.155,0,0,0,4.61,8.842a5.4,5.4,0,0,0,1.523,3.723l.282.282v1.8a5.311,5.311,0,0,0-4.456-2.425H1.451A.445.445,0,0,0,1,12.677v.677a5.3,5.3,0,0,0,5.3,5.3h.169v2.369A5.311,5.311,0,0,0,2.015,18.6H1.451c-.282-.056-.451.113-.451.395v.564a5.3,5.3,0,0,0,5.3,5.3h.169v2.369A5.311,5.311,0,0,0,2.015,24.8H1.451A.445.445,0,0,0,1,25.255v.62a5.3,5.3,0,0,0,5.3,5.3h.169v2.707A43.528,43.528,0,0,0,1.226,36.31a.416.416,0,0,0,.395.733c11.45-6.261,23.125-6.261,34.857,0H36.7a.426.426,0,0,0,.395-.226.391.391,0,0,0-.169-.564,35.848,35.848,0,0,0-5.246-2.369V31.121h.169a5.3,5.3,0,0,0,5.3-5.3V25.2a.445.445,0,0,0-.451-.451h-.62a5.311,5.311,0,0,0-4.456,2.425V24.8H31.8a5.3,5.3,0,0,0,5.3-5.3v-.508a.445.445,0,0,0-.451-.451h-.62a5.311,5.311,0,0,0-4.456,2.425V18.6Z" transform="translate(-1 -0.875)" fill="#e97e15"/>
</svg>
