<svg id="indent" xmlns="http://www.w3.org/2000/svg" width="35" height="31" viewBox="0 0 35 31">
  <rect id="Rectangle_272" data-name="Rectangle 272" width="22" height="4" rx="2" transform="translate(13 9)" fill="#fff"/>
  <rect id="Rectangle_273" data-name="Rectangle 273" width="35" height="5" rx="2.5" transform="translate(0 0)" fill="#fff"/>
  <rect id="Rectangle_274" data-name="Rectangle 274" width="35" height="5" rx="2.5" transform="translate(0 26)" fill="#fff"/>
  <rect id="Rectangle_275" data-name="Rectangle 275" width="22" height="4" rx="2" transform="translate(13 18)" fill="#fff"/>
  <path id="Path_189" data-name="Path 189" d="M2.222,28.554H5.888v3.055a.611.611,0,0,0,1.043.432l6.11-5.5a.611.611,0,0,0,0-.864l-6.11-5.5a.611.611,0,0,0-1.043.432v3.055H2.222A1.222,1.222,0,0,0,1,24.888v2.444a1.222,1.222,0,0,0,1.222,1.222Z" transform="translate(-0.599 -10.805)" fill="#fff"/>
</svg>
