<svg xmlns="http://www.w3.org/2000/svg" width="15.504" height="15.505" viewBox="0 0 15.504 15.505">
  <path id="list" d="M14.974,8.768a1.819,1.819,0,0,0-2.569,0L9.079,12.086a.606.606,0,0,0-.152.253L8.2,14.722a.605.605,0,0,0,.741.76l2.445-.677a.607.607,0,0,0,.266-.155l3.318-3.312a1.819,1.819,0,0,0,0-2.57ZM10.913,13.68l-1.23.341.36-1.185L12.286,10.6l.857.857Zm3.205-3.2L14,10.6l-.857-.857.117-.117a.606.606,0,0,1,.857.856ZM6.936,14.9a.606.606,0,0,1-.606.606H2.424A2.425,2.425,0,0,1,0,13.081V2.422A2.425,2.425,0,0,1,2.424,0H9.87a2.425,2.425,0,0,1,2.423,2.423V7.085a.606.606,0,0,1-1.211,0V2.422A1.213,1.213,0,0,0,9.87,1.21H2.424A1.213,1.213,0,0,0,1.212,2.422v10.66a1.213,1.213,0,0,0,1.211,1.211H6.33a.606.606,0,0,1,.606.606ZM9.873,4.511a.606.606,0,0,1-.606.606H7.481a.606.606,0,1,1,0-1.211H9.268A.606.606,0,0,1,9.873,4.511ZM6.222,3.262,4.808,4.973a1.058,1.058,0,0,1-.749.388l-.07,0a1.058,1.058,0,0,1-.728-.291l-.016-.016L2.6,4.389a.606.606,0,0,1,.868-.845l.516.53L5.288,2.49a.606.606,0,0,1,.934.772Zm3.046,5.58H7.481a.606.606,0,1,1,0-1.211H9.268a.606.606,0,0,1,0,1.211ZM6.222,6.983,4.808,8.694a1.058,1.058,0,0,1-.749.388l-.07,0a1.058,1.058,0,0,1-.728-.291l-.015-.015L2.6,8.115a.606.606,0,1,1,.865-.847l.517.528L5.288,6.211a.606.606,0,0,1,.934.772Zm0,3.664L4.808,12.358a1.058,1.058,0,0,1-.749.388l-.07,0a1.058,1.058,0,0,1-.728-.291l-.015-.015-.65-.664a.606.606,0,1,1,.865-.847l.517.528L5.288,9.876a.606.606,0,0,1,.934.772Zm0,0" transform="translate(-0.001 0.001)" fill="#963814"/>
</svg>
