<svg xmlns="http://www.w3.org/2000/svg" width="15.505" height="18.526" viewBox="0 0 15.505 18.526">
  <g id="microscope" transform="translate(-41.741 0.001)">
    <path id="Path_268" data-name="Path 268" d="M148.223,2.405,151.014.728l-.28-.465a.543.543,0,0,0-.745-.186l-1.861,1.118a.543.543,0,0,0-.186.745Z" transform="translate(-102.285 0)" fill="#963814"/>
    <path id="Path_269" data-name="Path 269" d="M367.534,343.113a.543.543,0,0,0-.746-.182l-3.029,1.84a3.742,3.742,0,0,1,.273,1.1l3.319-2.016A.542.542,0,0,0,367.534,343.113Z" transform="translate(-310.366 -330.447)" fill="#963814"/>
    <path id="Path_270" data-name="Path 270" d="M140.968,365.379h-1.628v-1.664a2.714,2.714,0,0,0-5.427,0v1.664h-1.628a.543.543,0,1,0,0,1.085h8.684a.543.543,0,1,0,0-1.085Zm-4.342-1.122a.543.543,0,1,1,.543-.543A.543.543,0,0,1,136.626,364.258Z" transform="translate(-86.743 -347.94)" fill="#963814"/>
    <path id="Path_271" data-name="Path 271" d="M153.131,39.038l.573.953,1.158-.7a2.886,2.886,0,1,1,2.976,4.946l-1.164.7.371.617a.543.543,0,0,0,.746.185l.473-.284.833,1.386a.543.543,0,0,0,.745.186L161.7,45.9a.543.543,0,0,0,.186-.745l-.833-1.386.456-.274a.543.543,0,0,0,.186-.745c-.013-.022-3.917-6.52-3.931-6.541a.543.543,0,0,0-.727-.158l-3.722,2.236a.543.543,0,0,0-.186.745Z" transform="translate(-107.284 -34.678)" fill="#963814"/>
    <path id="Path_272" data-name="Path 272" d="M46.083,156.512a3.788,3.788,0,0,1,1.143-2.714h-.6a1.628,1.628,0,0,1,0-3.256h1.252a.543.543,0,0,0,.279-.077l1.838-1.1a1.8,1.8,0,1,0-1.857-3.086l-1.668,1.009a4.885,4.885,0,0,0-.387,9.737Z" transform="translate(0 -140.736)" fill="#963814"/>
  </g>
</svg>
