<svg xmlns="http://www.w3.org/2000/svg" width="15.565" height="22.725" viewBox="0 0 15.565 22.725">
  <g id="coffee-bean" transform="translate(-0.001)">
    <path id="Path_154" data-name="Path 154" d="M221.268,5.476a10.331,10.331,0,0,0-2.721-3.928A6.119,6.119,0,0,0,214.858,0a4.624,4.624,0,0,0-2.075,3.065c-.681,3.563,2.33,7.87,2.361,7.913.138.195,3.368,4.819,2.582,8.933a5.85,5.85,0,0,1-1.046,2.415c.137-.055.274-.115.409-.181,3.166-1.544,5.294-5.877,5.294-10.782a15.576,15.576,0,0,0-1.115-5.887Z" transform="translate(-206.817)" fill="#ede3d7"/>
    <path id="Path_155" data-name="Path 155" d="M90.214,28.171c.681-3.563-2.33-7.87-2.361-7.913-.138-.195-3.369-4.819-2.582-8.933a5.85,5.85,0,0,1,1.049-2.419,7.758,7.758,0,0,0-3.511,3.03,14.459,14.459,0,0,0-2.2,7.937,14.46,14.46,0,0,0,2.2,7.937,6.9,6.9,0,0,0,5.329,3.425A4.623,4.623,0,0,0,90.214,28.171Z" transform="translate(-80.614 -8.51)" fill="#ede3d7"/>
  </g>
</svg>
