<svg xmlns="http://www.w3.org/2000/svg" width="16.436" height="16.084" viewBox="0 0 16.436 16.084">
  <g id="sunflower-seed" transform="translate(-2 -3.2)">
    <path id="Path_275" data-name="Path 275" d="M43.639,9.512A21.656,21.656,0,0,0,38.3,12.328a9.631,9.631,0,0,1,1.086,4.3,21.726,21.726,0,0,0,4.253-7.12Z" transform="translate(-25.646 -4.459)" fill="#963814"/>
    <path id="Path_276" data-name="Path 276" d="M42.517,11.686a22.057,22.057,0,0,1-4.693,7.387,8.583,8.583,0,0,1-1.673,4.419,8.476,8.476,0,0,0,3.564-2.153C42.6,18.449,42.669,13.833,42.517,11.686Z" transform="translate(-24.127 -5.995)" fill="#963814"/>
    <path id="Path_277" data-name="Path 277" d="M16.055,19.284c.972,0,2.055-2.893,2.055-7.044A21.636,21.636,0,0,0,16.055,3.2,21.636,21.636,0,0,0,14,12.24C14,16.392,15.083,19.284,16.055,19.284Z" transform="translate(-8.478)" fill="#963814"/>
    <path id="Path_278" data-name="Path 278" d="M23.493,3.774a22.021,22.021,0,0,1,1.91,8.872c0,2.719-.5,5.562-1.447,6.878,2.5-.7,4.382-3.546,4.382-6.943,0-4.092-3.221-7.4-4.845-8.807Z" transform="translate(-15.185 -0.406)" fill="#963814"/>
    <path id="Path_279" data-name="Path 279" d="M32.886,8.787A14.806,14.806,0,0,1,34.2,10.735a22.255,22.255,0,0,1,4.981-2.69A15.9,15.9,0,0,0,32.886,8.787Z" transform="translate(-21.821 -3.389)" fill="#963814"/>
    <path id="Path_280" data-name="Path 280" d="M6.382,19.523c-.946-1.317-1.447-4.159-1.447-6.878a22.019,22.019,0,0,1,1.91-8.872C5.221,5.18,2,8.488,2,12.58c0,3.4,1.878,6.244,4.382,6.943Z" transform="translate(0 -0.405)" fill="#963814"/>
  </g>
</svg>
