<svg xmlns="http://www.w3.org/2000/svg" width="36.5" height="36.5" viewBox="0 0 36.5 36.5">
  <g id="wash" transform="translate(-3 -3)">
    <path id="Path_266" data-name="Path 266" d="M39.639,51.473a1.775,1.775,0,0,1,1.514-.857.508.508,0,0,0,.5-.508,1.774,1.774,0,0,1,.858-1.513l.818-.491a2.442,2.442,0,0,0-.862-.152,3.484,3.484,0,0,0-2.408,1.07,3.537,3.537,0,0,0-1.054,2.152,2.5,2.5,0,0,0,.143,1.109Z" transform="translate(-13.343 -16.663)" fill="#fff"/>
    <path id="Path_267" data-name="Path 267" d="M36.148,42.155A1.777,1.777,0,0,1,37,40.641l.809-.485a2.5,2.5,0,0,0-1.109-.143,3.534,3.534,0,0,0-2.152,1.054,3.4,3.4,0,0,0-1.043,2.7,3.789,3.789,0,0,1,.432.06l.185-.309a1.775,1.775,0,0,1,1.513-.858.507.507,0,0,0,.508-.507Z" transform="translate(-11.306 -13.716)" fill="#fff"/>
    <path id="Path_268" data-name="Path 268" d="M28.544,49.019a3.531,3.531,0,0,0-1.055,2.152,2.491,2.491,0,0,0,.144,1.109l.485-.808a1.775,1.775,0,0,1,1.513-.857.508.508,0,0,0,.507-.508A1.773,1.773,0,0,1,31,48.594l.818-.491a2.439,2.439,0,0,0-.861-.152,3.481,3.481,0,0,0-2.409,1.068Z" transform="translate(-9.073 -16.663)" fill="#fff"/>
    <path id="Path_269" data-name="Path 269" d="M37.423,46.6a5.16,5.16,0,0,1,.671-.834,5.044,5.044,0,0,1,1.3-.939,2.925,2.925,0,0,0,.413-3.243l-1.2.72a.512.512,0,0,0-.247.435A1.768,1.768,0,0,1,36.6,44.509a.51.51,0,0,0-.435.247l-.081.135a3.262,3.262,0,0,1,.546.435,3.323,3.323,0,0,1,.8,1.279Z" transform="translate(-12.263 -14.304)" fill="#fff"/>
    <path id="Path_270" data-name="Path 270" d="M45.031,43.785a3.674,3.674,0,0,1,.433.06l.185-.308a1.775,1.775,0,0,1,1.514-.858.507.507,0,0,0,.5-.5,1.777,1.777,0,0,1,.857-1.514l.806-.483a3.182,3.182,0,0,0-3.258.909,3.418,3.418,0,0,0-1.04,2.7Z" transform="translate(-15.578 -13.733)" fill="#fff"/>
    <path id="Path_271" data-name="Path 271" d="M42.065,54.224a3.537,3.537,0,0,0,2.152-1.054,3.049,3.049,0,0,0,.739-3.626l-1.2.72a.509.509,0,0,0-.247.434,1.768,1.768,0,0,1-1.762,1.766.512.512,0,0,0-.435.247l-.72,1.2a2.376,2.376,0,0,0,1.472.313Z" transform="translate(-13.935 -17.253)" fill="#fff"/>
    <path id="Path_272" data-name="Path 272" d="M14.816,46.287a5.161,5.161,0,0,1,.445-.516A4.972,4.972,0,0,1,17.086,44.6a2.832,2.832,0,0,0,.243-3.014l-1.2.719a.513.513,0,0,0-.247.435,1.767,1.767,0,0,1-1.762,1.765.512.512,0,0,0-.435.247l-.08.134a3.192,3.192,0,0,1,1.21,1.4Z" transform="translate(-3.933 -14.305)" fill="#fff"/>
    <path id="Path_273" data-name="Path 273" d="M48.827,46.311a5.129,5.129,0,0,1,.464-.539,4.961,4.961,0,0,1,1.785-1.152,2.867,2.867,0,0,0,.257-3.029l-1.2.718a.513.513,0,0,0-.247.435,1.767,1.767,0,0,1-1.762,1.765.512.512,0,0,0-.435.247l-.08.133a3.193,3.193,0,0,1,1.219,1.42Z" transform="translate(-16.538 -14.305)" fill="#fff"/>
    <path id="Path_274" data-name="Path 274" d="M51.066,49.019a3.537,3.537,0,0,0-1.054,2.152,2.5,2.5,0,0,0,.143,1.109l.485-.808a1.775,1.775,0,0,1,1.514-.857.508.508,0,0,0,.5-.508,1.774,1.774,0,0,1,.858-1.513l.818-.491a2.442,2.442,0,0,0-.862-.152A3.484,3.484,0,0,0,51.066,49.019Z" transform="translate(-17.423 -16.663)" fill="#fff"/>
    <path id="Path_275" data-name="Path 275" d="M3,59H39.5v1.259H3Z" transform="translate(0 -20.759)" fill="#fff"/>
    <path id="Path_276" data-name="Path 276" d="M27.087,42.308a.512.512,0,0,0-.246.435,1.768,1.768,0,0,1-1.766,1.765.511.511,0,0,0-.435.247l-.081.135a3.267,3.267,0,0,1,.546.435,3.318,3.318,0,0,1,.8,1.279,5.131,5.131,0,0,1,.671-.834,5.034,5.034,0,0,1,1.3-.936,2.958,2.958,0,0,0,.418-3.246Z" transform="translate(-7.992 -14.305)" fill="#fff"/>
    <path id="Path_277" data-name="Path 277" d="M52.743,52.466a.512.512,0,0,0-.435.247l-.72,1.2a2.375,2.375,0,0,0,1.475.315,3.537,3.537,0,0,0,2.152-1.054,3.049,3.049,0,0,0,.739-3.626l-1.2.72a.509.509,0,0,0-.247.434,1.768,1.768,0,0,1-1.765,1.765Z" transform="translate(-18.011 -17.254)" fill="#fff"/>
    <path id="Path_278" data-name="Path 278" d="M31.986,50.7a1.768,1.768,0,0,1-1.766,1.766.51.51,0,0,0-.435.246l-.721,1.2a2.377,2.377,0,0,0,1.475.315,3.7,3.7,0,0,0,3.2-3.208,2.391,2.391,0,0,0-.315-1.476l-1.2.721A.508.508,0,0,0,31.986,50.7Z" transform="translate(-9.662 -17.253)" fill="#fff"/>
    <path id="Path_279" data-name="Path 279" d="M9.509,50.7a1.768,1.768,0,0,1-1.762,1.766.512.512,0,0,0-.435.247l-.723,1.2a2.379,2.379,0,0,0,1.475.315,3.537,3.537,0,0,0,2.152-1.054,3.049,3.049,0,0,0,.739-3.626l-1.2.72A.509.509,0,0,0,9.509,50.7Z" transform="translate(-1.33 -17.255)" fill="#fff"/>
    <path id="Path_280" data-name="Path 280" d="M16.61,51.473a1.773,1.773,0,0,1,1.513-.857.509.509,0,0,0,.508-.508,1.773,1.773,0,0,1,.857-1.513l.818-.491a2.438,2.438,0,0,0-.862-.152,3.485,3.485,0,0,0-2.409,1.07,3.184,3.184,0,0,0-.913,3.257Z" transform="translate(-4.816 -16.663)" fill="#fff"/>
    <path id="Path_281" data-name="Path 281" d="M11.025,43.785a3.689,3.689,0,0,1,.436.06l.186-.309a1.775,1.775,0,0,1,1.514-.858.507.507,0,0,0,.5-.5,1.777,1.777,0,0,1,.857-1.514l.806-.483a3.182,3.182,0,0,0-3.258.909,3.383,3.383,0,0,0-1.044,2.7Z" transform="translate(-2.971 -13.733)" fill="#fff"/>
    <path id="Path_282" data-name="Path 282" d="M21.172,53.17a3.049,3.049,0,0,0,.739-3.626l-1.2.72a.508.508,0,0,0-.246.434A1.768,1.768,0,0,1,18.7,52.465a.51.51,0,0,0-.435.246l-.719,1.2A3.042,3.042,0,0,0,21.172,53.17Z" transform="translate(-5.393 -17.253)" fill="#fff"/>
    <path id="Path_283" data-name="Path 283" d="M5.012,51.171a2.5,2.5,0,0,0,.143,1.109l.485-.808a1.775,1.775,0,0,1,1.514-.857.508.508,0,0,0,.5-.508,1.774,1.774,0,0,1,.858-1.513l.818-.491a2.442,2.442,0,0,0-.862-.152,3.484,3.484,0,0,0-2.408,1.07,3.537,3.537,0,0,0-1.052,2.15Z" transform="translate(-0.742 -16.663)" fill="#fff"/>
    <path id="Path_284" data-name="Path 284" d="M21.979,43.77a3.721,3.721,0,0,1,.437.06l.186-.309a1.774,1.774,0,0,1,1.513-.858.508.508,0,0,0,.508-.5,1.776,1.776,0,0,1,.856-1.514l.809-.485a2.5,2.5,0,0,0-1.109-.143,3.537,3.537,0,0,0-2.152,1.054,3.383,3.383,0,0,0-1.047,2.7Z" transform="translate(-7.032 -13.717)" fill="#fff"/>
    <path id="Path_285" data-name="Path 285" d="M12,17h8.81v1.259H12Z" transform="translate(-3.336 -5.19)" fill="#fff"/>
    <path id="Path_286" data-name="Path 286" d="M45.259,8.309V7H44V8.309a3.958,3.958,0,0,1,1.259,0Z" transform="translate(-15.198 -1.483)" fill="#fff"/>
    <path id="Path_287" data-name="Path 287" d="M40.1,13.515h6.167a3.147,3.147,0,0,0-6.167,0Z" transform="translate(-13.753 -2.964)" fill="#fff"/>
    <path id="Path_288" data-name="Path 288" d="M38,17h8.81v1.259H38Z" transform="translate(-12.974 -5.19)" fill="#fff"/>
    <path id="Path_289" data-name="Path 289" d="M3,3H39.5V4.259H3Z" fill="#fff"/>
    <path id="Path_290" data-name="Path 290" d="M19.259,8.309V7H18V8.309A3.958,3.958,0,0,1,19.259,8.309Z" transform="translate(-5.56 -1.483)" fill="#fff"/>
    <path id="Path_291" data-name="Path 291" d="M14.1,13.515h6.167a3.147,3.147,0,0,0-6.167,0Z" transform="translate(-4.115 -2.964)" fill="#fff"/>
    <path id="Path_292" data-name="Path 292" d="M18,24h1.259v1.259H18Z" transform="translate(-5.56 -7.784)" fill="#fff"/>
    <path id="Path_293" data-name="Path 293" d="M18,28h1.259v1.259H18Z" transform="translate(-5.56 -9.267)" fill="#fff"/>
    <path id="Path_294" data-name="Path 294" d="M18,32h1.259v1.259H18Z" transform="translate(-5.56 -10.75)" fill="#fff"/>
    <path id="Path_295" data-name="Path 295" d="M0,0H1.78V1.259H0Z" transform="translate(9.475 16.399) rotate(-45)" fill="#fff"/>
    <path id="Path_296" data-name="Path 296" d="M0,0H1.78V1.259H0Z" transform="translate(7.587 18.286) rotate(-45)" fill="#fff"/>
    <path id="Path_297" data-name="Path 297" d="M0,0H1.78V1.259H0Z" transform="translate(5.699 20.174) rotate(-45)" fill="#fff"/>
    <path id="Path_298" data-name="Path 298" d="M0,0H1.259V1.78H0Z" transform="translate(14.509 16.031) rotate(-45)" fill="#fff"/>
    <path id="Path_299" data-name="Path 299" d="M0,0H1.259V1.78H0Z" transform="translate(16.396 17.919) rotate(-45)" fill="#fff"/>
    <path id="Path_300" data-name="Path 300" d="M0,0H1.259V1.78H0Z" transform="translate(18.284 19.807) rotate(-45)" fill="#fff"/>
    <path id="Path_301" data-name="Path 301" d="M44,24h1.259v1.259H44Z" transform="translate(-15.198 -7.784)" fill="#fff"/>
    <path id="Path_302" data-name="Path 302" d="M44,28h1.259v1.259H44Z" transform="translate(-15.198 -9.267)" fill="#fff"/>
    <path id="Path_303" data-name="Path 303" d="M44,32h1.259v1.259H44Z" transform="translate(-15.198 -10.75)" fill="#fff"/>
    <path id="Path_304" data-name="Path 304" d="M0,0H1.78V1.259H0Z" transform="translate(25.835 16.401) rotate(-45)" fill="#fff"/>
    <path id="Path_305" data-name="Path 305" d="M0,0H1.78V1.259H0Z" transform="translate(23.947 18.288) rotate(-45)" fill="#fff"/>
    <path id="Path_306" data-name="Path 306" d="M0,0H1.78V1.259H0Z" transform="translate(22.059 20.176) rotate(-45)" fill="#fff"/>
    <path id="Path_307" data-name="Path 307" d="M0,0H1.259V1.78H0Z" transform="translate(30.869 16.033) rotate(-45)" fill="#fff"/>
    <path id="Path_308" data-name="Path 308" d="M0,0H1.259V1.78H0Z" transform="translate(32.757 17.921) rotate(-45)" fill="#fff"/>
    <path id="Path_309" data-name="Path 309" d="M0,0H1.259V1.78H0Z" transform="translate(34.644 19.809) rotate(-45)" fill="#fff"/>
  </g>
</svg>
