<svg xmlns="http://www.w3.org/2000/svg" width="11.599" height="17.152" viewBox="0 0 11.599 17.152">
  <g id="owner" transform="translate(0 0)">
    <path id="Path_225" data-name="Path 225" d="M11.01,249.521l-3.071-1.3a.236.236,0,0,0-.194,0,.184.184,0,0,0-.111.138l-1.8,7.276-1.826-7.276a.276.276,0,0,0-.111-.138.234.234,0,0,0-.194,0L.663,249.382a.964.964,0,0,0-.664.885v6.28a.238.238,0,0,0,.221.221H11.37a.218.218,0,0,0,.221-.221v-6.142a.872.872,0,0,0-.581-.885Zm0,0" transform="translate(0 -239.617)" fill="#963814"/>
    <path id="Path_226" data-name="Path 226" d="M140.548,241.713a.587.587,0,0,0-.083-.719.57.57,0,0,0-.47-.194h-.83a.722.722,0,0,0-.47.194.624.624,0,0,0-.083.719l.221.332a.947.947,0,0,1,.138.609l-.138,1.439.415,1.134a.36.36,0,0,0,.664,0l.415-1.134-.166-1.411a.908.908,0,0,1,.138-.609Zm0,0" transform="translate(-133.743 -232.474)" fill="#963814"/>
    <path id="Path_227" data-name="Path 227" d="M76.121,7.69a3.33,3.33,0,0,0,3.32-3.32V3.319a3.32,3.32,0,1,0-6.64,0V4.371A3.33,3.33,0,0,0,76.121,7.69Zm0,0" transform="translate(-70.284 0)" fill="#963814"/>
  </g>
</svg>
