<svg width="20" height="21" viewBox="0 0 20 21" fill="none" xmlns="http://www.w3.org/2000/svg">
<path d="M15.8333 1.66667H15V0.833333C15 0.61232 14.9122 0.400358 14.7559 0.244078C14.5996 0.0877974 14.3877 0 14.1667 0C13.9457 0 13.7337 0.0877974 13.5774 0.244078C13.4211 0.400358 13.3333 0.61232 13.3333 0.833333V1.66667H6.66667V0.833333C6.66667 0.61232 6.57887 0.400358 6.42259 0.244078C6.26631 0.0877974 6.05435 0 5.83333 0C5.61232 0 5.40036 0.0877974 5.24408 0.244078C5.0878 0.400358 5 0.61232 5 0.833333V1.66667H4.16667C3.062 1.66799 2.00296 2.1074 1.22185 2.88852C0.440735 3.66963 0.00132321 4.72867 0 5.83333L0 6.66667H20V5.83333C19.9987 4.72867 19.5593 3.66963 18.7782 2.88852C17.997 2.1074 16.938 1.66799 15.8333 1.66667Z" fill="#B64B1D"/>
<path d="M0 16.1665C0.00132321 17.2712 0.440735 18.3302 1.22185 19.1113C2.00296 19.8924 3.062 20.3318 4.16667 20.3332H15.8333C16.938 20.3318 17.997 19.8924 18.7782 19.1113C19.5593 18.3302 19.9987 17.2712 20 16.1665V8.6665H0V16.1665ZM14.1667 12.4165C14.4139 12.4165 14.6556 12.4898 14.8611 12.6272C15.0667 12.7645 15.2269 12.9597 15.3215 13.1881C15.4161 13.4166 15.4409 13.6679 15.3926 13.9104C15.3444 14.1528 15.2254 14.3756 15.0505 14.5504C14.8757 14.7252 14.653 14.8443 14.4105 14.8925C14.1681 14.9407 13.9167 14.916 13.6883 14.8214C13.4599 14.7267 13.2647 14.5665 13.1273 14.361C12.99 14.1554 12.9167 13.9137 12.9167 13.6665C12.9167 13.335 13.0484 13.017 13.2828 12.7826C13.5172 12.5482 13.8351 12.4165 14.1667 12.4165ZM10 12.4165C10.2472 12.4165 10.4889 12.4898 10.6945 12.6272C10.9 12.7645 11.0602 12.9597 11.1548 13.1881C11.2495 13.4166 11.2742 13.6679 11.226 13.9104C11.1777 14.1528 11.0587 14.3756 10.8839 14.5504C10.7091 14.7252 10.4863 14.8443 10.2439 14.8925C10.0014 14.9407 9.75005 14.916 9.52165 14.8214C9.29324 14.7267 9.09801 14.5665 8.96066 14.361C8.82331 14.1554 8.75 13.9137 8.75 13.6665C8.75 13.335 8.8817 13.017 9.11612 12.7826C9.35054 12.5482 9.66848 12.4165 10 12.4165ZM5.83333 12.4165C6.08056 12.4165 6.32223 12.4898 6.5278 12.6272C6.73336 12.7645 6.89357 12.9597 6.98818 13.1881C7.08279 13.4166 7.10755 13.6679 7.05931 13.9104C7.01108 14.1528 6.89203 14.3756 6.71722 14.5504C6.5424 14.7252 6.31967 14.8443 6.0772 14.8925C5.83472 14.9407 5.58339 14.916 5.35498 14.8214C5.12657 14.7267 4.93135 14.5665 4.794 14.361C4.65664 14.1554 4.58333 13.9137 4.58333 13.6665C4.58333 13.335 4.71503 13.017 4.94945 12.7826C5.18387 12.5482 5.50181 12.4165 5.83333 12.4165Z" fill="#B64B1D"/>
</svg>
