<svg xmlns="http://www.w3.org/2000/svg" width="41" height="41" viewBox="0 0 41 41">
  <g id="Group_1111" data-name="Group 1111" transform="translate(-33 -176)">
    <circle id="Ellipse_24" data-name="Ellipse 24" cx="20.5" cy="20.5" r="20.5" transform="translate(33 176)" fill="#e97e15" opacity="0.1"/>
    <g id="coffee-bean_1_" data-name="coffee-bean (1)" transform="translate(40.475 183.475)">
      <path id="Path_185" data-name="Path 185" d="M112,14.147a9.3,9.3,0,0,0-1.721,4.9l-4.641-4.467c.188-4.218,2.647-7.765,5.9-8.788A6.321,6.321,0,0,1,112,14.147Z" transform="translate(-100.265 -5.495)" fill="#e97e15"/>
      <path id="Path_186" data-name="Path 186" d="M235.742,9.082l-7.651,7.363-1.467-1.412a8.417,8.417,0,0,1,1.6-5.729A8.074,8.074,0,0,0,229.7,4.1,7.024,7.024,0,0,0,228.091,0a6.946,6.946,0,0,1,5.738,3.179,11.527,11.527,0,0,1,1.912,5.9Z" transform="translate(-215.066)" fill="#e97e15"/>
      <path id="Path_187" data-name="Path 187" d="M289.247,165.719a12.589,12.589,0,0,1-5.444,8.874l-6.431-6.178,9.8-9.425A8.136,8.136,0,0,1,289.247,165.719Z" transform="translate(-263.26 -150.901)" fill="#e97e15"/>
      <path id="Path_188" data-name="Path 188" d="M19.2,175.415a13.942,13.942,0,0,1-6.171,1.536,13.116,13.116,0,0,1-9.333-3.845,12.7,12.7,0,0,1-3.629-7.387,8.136,8.136,0,0,1,2.078-6.729Z" transform="translate(0 -150.901)" fill="#e97e15"/>
    </g>
  </g>
</svg>
