<svg xmlns="http://www.w3.org/2000/svg" width="31.666" height="31.666" viewBox="0 0 31.666 31.666">
  <g id="Group_1151" data-name="Group 1151" transform="translate(-50 -403.167)">
    <path id="Path_228" data-name="Path 228" d="M15.833,0A15.833,15.833,0,1,1,0,15.833,15.833,15.833,0,0,1,15.833,0Z" transform="translate(50 403.167)" fill="#963814" opacity="0.1"/>
    <g id="report" transform="translate(-2 410.167)">
      <path id="Path_251" data-name="Path 251" d="M61,.5V13.513a.5.5,0,0,0,.5.5h8.964a.5.5,0,0,0,.5-.5V.5a.5.5,0,0,0-.5-.5H61.5A.5.5,0,0,0,61,.5Zm7.968,10.99H66.976a.5.5,0,0,1,0-1h1.992a.5.5,0,0,1,0,1ZM62.992,2.523H65.98a.5.5,0,1,1,0,1H62.992a.5.5,0,1,1,0-1Zm0,1.992h5.976a.5.5,0,0,1,0,1H62.992a.5.5,0,1,1,0-1Zm0,1.992h5.976a.5.5,0,0,1,0,1H62.992a.5.5,0,1,1,0-1Zm0,1.992h5.976a.5.5,0,0,1,0,1H62.992a.5.5,0,1,1,0-1Z" fill="#963814"/>
      <path id="Path_252" data-name="Path 252" d="M151.5,104.978h8.964a.5.5,0,0,0,.5-.5V91.5a.5.5,0,0,0-.5-.5h-1.494v10.492a1.5,1.5,0,0,1-1.494,1.494H151v1.494A.5.5,0,0,0,151.5,104.978Z" transform="translate(-87.012 -87.979)" fill="#963814"/>
    </g>
  </g>
</svg>
