<svg xmlns="http://www.w3.org/2000/svg" width="13.334" height="13.334" viewBox="0 0 13.334 13.334">
  <g id="_x33_33" transform="translate(-1 -1)">
    <path id="Path_230" data-name="Path 230" d="M10.706,1H4.622A3.628,3.628,0,0,0,1,4.628v6.084a3.623,3.623,0,0,0,3.622,3.622h6.084a3.628,3.628,0,0,0,3.628-3.622V4.628A3.633,3.633,0,0,0,10.706,1ZM3.5,6.217A1.389,1.389,0,1,1,4.889,7.606,1.389,1.389,0,0,1,3.5,6.217Zm2.076,4.977a.556.556,0,0,1-.195-.761l3.61-6.094a.556.556,0,1,1,.956.566L6.337,11A.556.556,0,0,1,5.576,11.194Zm4.869-.683a1.389,1.389,0,1,1,1.389-1.389A1.389,1.389,0,0,1,10.445,10.512Z" fill="#963814"/>
  </g>
</svg>
