<svg xmlns="http://www.w3.org/2000/svg" width="41.071" height="40.985" viewBox="0 0 41.071 40.985">
  <g id="seeding" transform="translate(0 -0.472)">
    <g id="Group_1122" data-name="Group 1122" transform="translate(11.728 12.223)">
      <g id="Group_1121" data-name="Group 1121">
        <path id="Path_235" data-name="Path 235" d="M136.542,132.009a.489.489,0,0,0,.637-.614c-.879-2.709-4.062-3.719-7.02-1.316a12.614,12.614,0,0,1-2.156,1.54c1.026,1.026,2.2,4.468,4.756,4.849,2.818.511,5.312-2.261,3.271-3.53a8.712,8.712,0,0,0-4.615-1.319A8.736,8.736,0,0,1,136.542,132.009Z" transform="translate(-128.003 -128.724)" fill="#e97e15"/>
      </g>
    </g>
    <g id="Group_1124" data-name="Group 1124" transform="translate(19.734 0.472)">
      <g id="Group_1123" data-name="Group 1123" transform="translate(0 0)">
        <path id="Path_236" data-name="Path 236" d="M228.673,13.579c-5.107-4.149-8.364,2.394-6.34,1.745a8.707,8.707,0,0,1,4.587-.206,8.786,8.786,0,0,0-6.776,3.217,56.165,56.165,0,0,1,.575-6.551A5.449,5.449,0,0,0,224.9,8.708c1.722-3.082.923-6.242.666-8.236-1.345,1.31-7.223-.225-9.554,3.768a5.14,5.14,0,0,0,.353,5.481.658.658,0,0,0,1.186-.345A6.182,6.182,0,0,1,221.4,3.669a11.85,11.85,0,0,0-2.181,4.64c-.576,2.553-1.178,4.227-1.4,12.363a1.458,1.458,0,0,0,1.471,1.5,1.48,1.48,0,0,0,1.339-.938,6.636,6.636,0,0,1,1.844-2.5,3.909,3.909,0,0,0,3.6,1.238c2.547-.379,3.736-3.829,4.756-4.849A12.562,12.562,0,0,1,228.673,13.579Z" transform="translate(-215.38 -0.472)" fill="#e97e15"/>
      </g>
    </g>
    <g id="Group_1126" data-name="Group 1126" transform="translate(0 22.4)">
      <g id="Group_1125" data-name="Group 1125">
        <path id="Path_237" data-name="Path 237" d="M40.535,241.119a3.865,3.865,0,0,0-4.132.149L26.387,248.6H20.524l-1.466-1.466h5.385c1.62,0,3.433-1.055,3.433-2.933,0-1.993-1.814-2.933-3.433-2.933H22.425c-1.5,0-3.251.134-4.486-.528a8.732,8.732,0,0,0-3.968-.937,8.468,8.468,0,0,0-6.076,2.489L0,250.064l8.8,8.8,2.932-4.4H25.583a6.036,6.036,0,0,0,4.009-1.523l11.044-9.811A1.284,1.284,0,0,0,40.535,241.119Z" transform="translate(0 -239.804)" fill="#e97e15"/>
      </g>
    </g>
  </g>
</svg>
