<?xml version="1.0" encoding="UTF-8"?>
<svg xmlns="http://www.w3.org/2000/svg" xmlns:xlink="http://www.w3.org/1999/xlink" width="30px" height="30px" viewBox="0 0 30 30" version="1.1">
<g id="surface1">
<path style=" stroke:none;fill-rule:nonzero;fill:rgb(91.372549%,49.411765%,8.235294%);fill-opacity:1;" d="M 3.847656 0 L 26.152344 0 C 28.277344 0 30 1.722656 30 3.847656 L 30 26.152344 C 30 28.277344 28.277344 30 26.152344 30 L 3.847656 30 C 1.722656 30 0 28.277344 0 26.152344 L 0 3.847656 C 0 1.722656 1.722656 0 3.847656 0 Z M 3.847656 0 "/>
<path style=" stroke:none;fill-rule:nonzero;fill:rgb(100%,100%,100%);fill-opacity:1;" d="M 17.257812 15 C 17.257812 16.25 16.246094 17.261719 15 17.261719 C 13.75 17.261719 12.738281 16.246094 12.738281 15 C 12.738281 13.75 13.75 12.738281 15 12.738281 C 16.246094 12.742188 17.257812 13.753906 17.257812 15 Z M 17.257812 15 "/>
<path style=" stroke:none;fill-rule:nonzero;fill:rgb(100%,100%,100%);fill-opacity:1;" d="M 23.296875 14.386719 C 22.390625 12.96875 21.195312 11.757812 19.789062 10.835938 C 18.367188 9.886719 16.699219 9.371094 14.988281 9.351562 C 13.4375 9.367188 11.921875 9.808594 10.605469 10.628906 C 9.0625 11.585938 7.742188 12.863281 6.730469 14.371094 C 6.46875 14.746094 6.460938 15.242188 6.710938 15.625 C 7.601562 17.042969 8.78125 18.253906 10.179688 19.179688 C 11.601562 20.128906 13.277344 20.640625 14.988281 20.648438 C 16.699219 20.628906 18.371094 20.121094 19.796875 19.175781 C 21.203125 18.25 22.398438 17.035156 23.296875 15.613281 C 23.535156 15.238281 23.535156 14.761719 23.296875 14.386719 Z M 15.003906 18.386719 C 13.132812 18.386719 11.613281 16.867188 11.613281 14.996094 C 11.613281 13.125 13.132812 11.609375 15.003906 11.609375 C 16.875 11.609375 18.390625 13.125 18.390625 14.996094 C 18.394531 15.898438 18.035156 16.761719 17.398438 17.394531 C 16.761719 18.03125 15.898438 18.390625 15 18.390625 Z M 15.003906 18.386719 "/>
</g>
</svg>
